<?xml version="1.0" encoding="UTF-8" standalone="no"?>
<!-- Created with Inkscape (http://www.inkscape.org/) -->

<svg
   xmlns:dc="http://purl.org/dc/elements/1.1/"
   xmlns:cc="http://creativecommons.org/ns#"
   xmlns:rdf="http://www.w3.org/1999/02/22-rdf-syntax-ns#"
   xmlns:svg="http://www.w3.org/2000/svg"
   xmlns="http://www.w3.org/2000/svg"
   xmlns:sodipodi="http://sodipodi.sourceforge.net/DTD/sodipodi-0.dtd"
   xmlns:inkscape="http://www.inkscape.org/namespaces/inkscape"
   width="646.30945"
   height="645.60956"
   id="svg2"
   version="1.1"
   inkscape:version="0.48.4 r9939"
   sodipodi:docname="chi.svg">
  <defs
     id="defs4" />
  <sodipodi:namedview
     id="base"
     pagecolor="#ffffff"
     bordercolor="#666666"
     borderopacity="1.0"
     inkscape:pageopacity="0.0"
     inkscape:pageshadow="2"
     inkscape:zoom="0.35940445"
     inkscape:cx="273.88875"
     inkscape:cy="194.90195"
     inkscape:document-units="px"
     inkscape:current-layer="layer1"
     showgrid="false"
     fit-margin-top="10"
     fit-margin-left="10"
     fit-margin-right="10"
     fit-margin-bottom="10"
     inkscape:window-width="1301"
     inkscape:window-height="744"
     inkscape:window-x="65"
     inkscape:window-y="24"
     inkscape:window-maximized="1" />
  <metadata
     id="metadata7">
    <rdf:RDF>
      <cc:Work
         rdf:about="">
        <dc:format>image/svg+xml</dc:format>
        <dc:type
           rdf:resource="http://purl.org/dc/dcmitype/StillImage" />
        <dc:title />
      </cc:Work>
    </rdf:RDF>
  </metadata>
  <g
     inkscape:label="Layer 1"
     inkscape:groupmode="layer"
     id="layer1"
     transform="translate(-43.111131,-173.66372)">
    <path
       style="fill:#2e2e2e"
       d="M 335.77722,808.04374 C 186.08348,796.98679 57.748088,662.53954 53.677578,512.41163 45.517238,383.41887 126.28845,254.59131 246.70142,206.93345 c 114.50609,-47.83697 256.55852,-20.61771 342.639,69.68275 90.36037,88.92377 115.77993,234.67756 62.38466,349.4306 -49.93181,111.73644 -169.70827,188.44629 -292.57538,182.949 -7.79684,-0.13814 -15.58925,-0.47637 -23.37248,-0.95206 z m 64.1361,-2.6739 C 559.8963,791.37623 689.34973,632.54374 673.34436,473.20323 664.39682,335.90216 552.37762,207.06758 413.26884,192.6426 c -59.2734,-5.2274 -126.32034,4.72308 -170.12006,48.25202 -59.78545,66.37133 -39.2616,185.78959 40.79844,226.76932 56.47041,33.99595 133.15548,29.883 177.9692,83.48354 39.90369,43.18078 41.97958,109.68053 21.33383,162.15694 -17.5031,44.74925 -59.91302,72.85285 -103.4765,88.49788 -23.37005,10.45843 16.84356,2.77769 20.13957,3.56754 z m -42.1361,-427.76792 c -43.31599,-8.09472 -42.00411,-80.05976 0.55046,-88.35238 40.00249,-14.31656 77.12581,43.31868 47.42194,73.74893 -11.46467,13.41957 -30.94589,19.67523 -47.9724,14.60345 z m 28.99382,323.12561 c 41.19232,-8.83728 43.75013,-77.21132 2.52746,-87.89781 -38.16899,-17.4189 -82.22979,33.86362 -57.1927,68.3674 11.5527,17.24607 34.72004,26.43809 54.66524,19.53041 z"
       id="path3016"
       inkscape:connector-curvature="0" />
    <path
       style="fill:#000000"
       d="M 327.29008,806.65148 C 176.94797,790.96836 49.931408,650.42698 54.759168,498.33693 50.755448,378.32309 126.39169,262.7411 234.98907,213.47274 c 66.84745,-31.35863 145.54048,-37.50075 216.24049,-16.30813 -69.17407,-11.95492 -150.02962,-10.11395 -205.15227,39.0033 -62.34323,63.05806 -47.07355,180.69098 27.98138,227.2725 59.88369,40.06633 146.09078,33.46815 192.41185,94.83528 39.08443,51.52639 36.54958,128.81266 0.72437,181.22782 -29.16658,37.83892 -74.90797,64.18668 -122.39893,68.71813 -5.83975,-0.48037 -11.63875,-1.42553 -17.50588,-1.57016 z m 65.58233,-107.45353 c 40.96135,-14.77066 32.58619,-84.32539 -10.72334,-89.08058 -40.4652,-11.03431 -76.7909,44.88172 -47.93986,76.37141 13.87585,16.37626 39.28345,22.6808 58.6632,12.70917 z m 135.0773,63.72589 C 631.77229,695.46855 695.23105,565.30777 670.36812,442.00344 653.87559,351.97891 595.6567,271.23176 516.95661,225.00476 c 36.97949,16.59974 68.76444,46.77886 94.38002,78.57122 75.39094,94.59341 88.59171,233.67439 30.22098,339.93713 -26.19964,49.03554 -65.59001,91.2043 -113.6079,119.41073 z m -171.05,-386.18678 c -42.10645,-8.66248 -39.46743,-78.72157 1.76471,-86.61806 39.90647,-13.21806 75.18553,43.2563 45.61531,73.14734 -11.48583,13.01136 -30.75262,18.68747 -47.38002,13.47072 z m 147.95,-158.5113 c -4.78742,-6.17879 11.54363,8.48355 0,0 z m -45.30625,-18.90142 c 5.21042,-3.60456 0.88416,2.90881 0,0 z"
       id="path3014"
       inkscape:connector-curvature="0" />
  </g>
</svg>
