<?xml version="1.0" encoding="UTF-8" standalone="no"?>
<!-- Created with Inkscape (http://www.inkscape.org/) -->

<svg
   xmlns:dc="http://purl.org/dc/elements/1.1/"
   xmlns:cc="http://creativecommons.org/ns#"
   xmlns:rdf="http://www.w3.org/1999/02/22-rdf-syntax-ns#"
   xmlns:svg="http://www.w3.org/2000/svg"
   xmlns="http://www.w3.org/2000/svg"
   xmlns:sodipodi="http://sodipodi.sourceforge.net/DTD/sodipodi-0.dtd"
   xmlns:inkscape="http://www.inkscape.org/namespaces/inkscape"
   width="652.74683"
   height="652.87213"
   id="svg2"
   version="1.1"
   inkscape:version="0.48.4 r9939"
   sodipodi:docname="chi.svg">
  <defs
     id="defs4" />
  <sodipodi:namedview
     id="base"
     pagecolor="#ffffff"
     bordercolor="#666666"
     borderopacity="1.0"
     inkscape:pageopacity="0.0"
     inkscape:pageshadow="2"
     inkscape:zoom="0.84355469"
     inkscape:cx="152.47079"
     inkscape:cy="347.14824"
     inkscape:document-units="px"
     inkscape:current-layer="layer1"
     showgrid="false"
     fit-margin-top="10"
     fit-margin-left="10"
     fit-margin-right="10"
     fit-margin-bottom="10"
     inkscape:window-width="1301"
     inkscape:window-height="744"
     inkscape:window-x="65"
     inkscape:window-y="24"
     inkscape:window-maximized="1" />
  <metadata
     id="metadata7">
    <rdf:RDF>
      <cc:Work
         rdf:about="">
        <dc:format>image/svg+xml</dc:format>
        <dc:type
           rdf:resource="http://purl.org/dc/dcmitype/StillImage" />
        <dc:title></dc:title>
      </cc:Work>
    </rdf:RDF>
  </metadata>
  <g
     inkscape:label="Layer 1"
     inkscape:groupmode="layer"
     id="layer1"
     transform="translate(-38.284893,-169.80794)">
    <path
       style="fill:#d0d0d0"
       d="M 334.00844,810.99762 C 180.74526,799.76911 49.340293,660.02733 48.63032,506.09767 41.890928,370.20349 134.47646,237.02206 264.22921,195.93578 c 114.68442,-39.07126 250.36022,-5.70464 332.00388,84.40155 86.54973,90.30211 109.34306,233.46081 56.80837,346.72152 -51.00473,114.71365 -174.83124,192.28081 -300.61936,185.16973 -6.14756,-0.24281 -12.28834,-0.6551 -18.41366,-1.23096 z m 84.30545,-12.15613 C 574.39946,773.57747 691.72813,610.65232 666.60174,454.54377 650.43672,337.53525 561.46668,230.43593 445.81865,201.29213 381.11637,186.5838 306.96354,193.23439 252.85854,234.12877 189.4686,291.32335 198.87558,404.75492 267.9647,453.5894 c 57.50706,45.35692 143.52548,36.10458 193.43957,93.51276 43.90601,46.7907 44.38758,121.1166 18.95176,176.93025 -20.04968,36.78241 -55.69375,62.72635 -93.94214,78.21721 10.68211,-0.56473 21.36703,-1.49116 31.9,-3.40813 z M 355.9,380.41302 c -44.12001,-7.75876 -47.30772,-80.09299 -4.65924,-92.88169 37.99729,-17.74953 82.67027,29.8429 62.17483,66.57212 -9.65118,20.87559 -35.384,32.8387 -57.51559,26.30957 z m 32.91146,315.20891 c 40.00479,-12.57007 29.8447,-80.77815 -11.31647,-82.79037 -45.75904,-9.80911 -72.12821,63.81769 -26.80716,81.94567 11.74745,5.814 26.18841,6.58463 38.12363,0.8447 z"
       id="path3026"
       inkscape:connector-curvature="0" />
    <path
       style="fill:#b0b0b0"
       d="M 333.02839,809.93719 C 180.49208,798.11784 50.277376,658.91698 49.620478,505.68267 44.659227,389.12893 111.02162,273.98306 213.69107,218.8673 c 114.51425,-63.33479 267.49179,-45.78192 363.4386,43.72 94.98805,85.01647 129.18748,229.68743 81.83615,348.11482 -44.69999,116.64442 -163.41112,200.50601 -288.69691,200.67908 -12.42761,0.1862 -24.86337,-0.31855 -37.24052,-1.44401 z m 68.17571,-7.67901 C 555.88516,786.84703 680.77391,636.10693 670.06735,481.48778 665.056,337.60663 545.42995,201.46093 398.99524,192.98731 c -62.7845,-2.00718 -137.22596,12.689 -172.19965,70.68842 -39.48388,71.22966 -10.1856,173.56205 66.06178,206.71295 57.62293,29.36346 133.40312,29.17388 174.78697,85.38502 36.51539,46.63317 35.42164,114.24355 12.61729,166.57827 -20.37773,38.41202 -58.07961,64.28424 -97.3751,80.68545 6.08929,2.17376 12.17778,-0.98537 18.31757,-0.77924 z M 355.09056,379.2542 c -44.72331,-8.77932 -43.28302,-82.60464 0.0656,-92.37449 39.42903,-14.45624 77.77088,36.52734 55.4389,70.93998 -11.25508,18.24285 -34.83955,27.81052 -55.50444,21.43451 z m 35.28121,316.79855 c 39.02768,-14.71558 30.12072,-81.63421 -12.28049,-83.9339 -38.97201,-8.87156 -71.11399,47.8966 -39.73414,74.87649 13.40594,12.95358 35.05822,17.57234 52.01463,9.05741 z"
       id="path3024"
       inkscape:connector-curvature="0" />
    <path
       style="fill:#8f8f8f"
       d="M 318.76389,807.77523 C 169.82089,788.51045 47.101112,648.8076 49.907893,498.10802 48.091701,374.68828 125.63261,254.2057 240.05608,206.88466 c 114.08651,-50.0538 257.07521,-24.90253 344.77076,64.46722 73.31245,70.29624 107.81414,177.17855 90.39294,277.16456 -22.03511,145.48137 -158.81201,265.11871 -307.01953,261.54994 -16.50431,0.04 -32.99595,-0.89841 -49.43636,-2.29115 z m 95.7,-6.635 c 156.70669,-22.9489 276.868,-184.45317 254.39598,-341.14015 -14.00552,-125.1629 -112.55638,-239.363 -237.28085,-263.72523 -61.74846,-8.71153 -132.21037,-3.46417 -181.75842,38.43154 -69.67997,63.90598 -46.75728,193.74042 37.81186,233.88659 59.05923,31.12963 137.13293,30.4444 180.16543,88.0814 34.6556,45.66102 35.04211,111.08334 13.28444,162.30464 -19.73456,40.89458 -59.37935,67.33244 -99.8379,84.54088 10.0313,3.22824 22.69171,-2.31831 33.21946,-2.37967 z m -51.15,-420.9621 c -43.31915,-0.759 -56.74482,-69.20201 -18.27007,-87.66161 34.94625,-23.27013 84.50064,16.53017 68.68863,55.81577 -6.5203,20.69724 -28.72264,35.50426 -50.41856,31.84584 z m 27.30042,316.13511 c 40.03375,-14.66319 29.83971,-82.8414 -13.00212,-84.79704 -39.26973,-8.27618 -70.9131,48.49115 -39.96182,75.88718 13.62108,13.17484 35.86134,18.22034 52.96394,8.90986 z"
       id="path3022"
       inkscape:connector-curvature="0" />
    <path
       style="fill:#6f6f6f"
       d="M 333.33225,808.75132 C 182.47641,797.16628 53.182422,660.65029 50.840577,509.11734 44.670728,392.04744 110.67678,275.67625 213.76031,220.06344 332.52848,154.1181 493.16533,176.01851 587.7408,274.3795 c 94.42902,93.81417 119.92449,249.79237 55.72172,367.25182 -55.3819,105.67559 -173.58911,177.03147 -293.79679,167.89514 -5.44781,-0.18135 -10.89267,-0.44603 -16.33348,-0.77514 z m 63.67607,-4.77953 C 556.22662,790.86815 685.71132,633.47207 670.64855,474.91665 662.9264,336.76497 549.6963,206.92742 409.86779,193.20653 353.3371,188.83621 290.50321,197.89474 246.768,236.66779 c -62.88065,62.87135 -46.25709,180.99351 29.75873,226.21684 58.4363,37.35049 139.58057,32.22474 186.41245,88.7873 39.34909,45.0174 39.16715,113.04479 18.35654,166.26125 -20.81195,42.81281 -63.06203,70.67458 -106.58012,86.71405 7.39743,1.88811 14.87593,-0.36046 22.29272,-0.67544 z M 356.16389,378.40635 c -43.73433,-8.28954 -44.13975,-79.60334 -1.57304,-90.06269 37.61026,-14.7108 78.32196,34.64857 54.80851,68.27218 -10.0317,18.44029 -33.21627,27.46967 -53.23547,21.79051 z m 34.1,318.88969 c 38.69319,-13.39681 33.06106,-79.86558 -8.03042,-85.24613 -39.1741,-13.07531 -76.07804,41.94167 -47.83159,72.7405 13.41939,15.44506 37.13871,21.03199 55.86201,12.50563 z"
       id="path3020"
       inkscape:connector-curvature="0" />
    <path
       style="fill:#4e4e4e"
       d="M 329.21389,808.1084 C 181.74994,794.01733 56.167499,661.69422 51.311163,513.31746 43.35142,381.27464 126.83058,248.35227 252.05576,203.05998 c 118.6476,-45.38415 264.15138,-12.9526 347.33321,84.56516 89.78155,99.27872 105.6463,257.82435 33.48235,371.35314 -58.09363,95.65098 -169.26876,158.2125 -281.97751,149.75849 -7.22861,-0.13371 -14.45507,-0.36295 -21.67992,-0.62837 z m 85.25,-5.72043 C 574.13756,779.00652 695.81712,612.28749 669.19231,453.02831 651.23726,322.7734 541.78091,204.10475 408.01248,192.81652 c -58.60617,-3.69433 -125.71737,4.7697 -167.77112,49.85999 -56.23591,65.34767 -37.77952,178.84771 38.01967,221.26408 53.46259,34.76675 124.43889,31.58073 172.75642,76.01655 49.62461,43.34264 52.81185,120.04202 29.80999,177.86181 -21.37148,43.30275 -64.3793,71.36182 -108.68124,87.24488 14.15645,0.72136 28.30862,-0.77142 42.31769,-2.67586 z m -51.15,-423.25631 c -42.85661,-0.84079 -55.08838,-68.72417 -16.88198,-86.16226 37.34143,-24.10605 87.26053,24.28821 62.98097,62.30077 -8.35532,16.58062 -27.6643,26.89062 -46.09899,23.86149 z m 27.52802,318.1691 c 38.41841,-13.5867 32.83086,-79.51322 -7.85968,-85.2087 -38.64644,-13.87969 -77.8606,39.82197 -49.81604,71.24831 12.86978,17.11246 38.43644,24.43926 57.67572,13.96039 z"
       id="path3018"
       inkscape:connector-curvature="0" />
    <path
       style="fill:#2e2e2e"
       d="M 334.16389,807.68532 C 184.47015,796.62837 56.134757,662.18112 52.06425,512.05321 43.903905,383.06045 124.67512,254.23289 245.08809,206.57503 c 114.50609,-47.83697 256.55852,-20.61771 342.63899,69.68275 90.36037,88.92377 115.77993,234.67756 62.38466,349.4306 -49.93181,111.73644 -169.70826,188.44629 -292.57537,182.949 -7.79684,-0.13814 -15.58925,-0.47637 -23.37248,-0.95206 z m 64.1361,-2.6739 C 558.28296,791.01781 687.73639,632.18532 671.73102,472.84481 662.78348,335.54374 550.76429,206.70916 411.65551,192.28418 c -59.2734,-5.2274 -126.32034,4.72308 -170.12006,48.25202 -59.78545,66.37133 -39.2616,185.78959 40.79844,226.76932 56.47041,33.99595 133.15548,29.883 177.9692,83.48354 39.90369,43.18078 41.97958,109.68053 21.33383,162.15694 -17.5031,44.74925 -59.91302,72.85285 -103.4765,88.49788 -23.37005,10.45843 16.84356,2.77769 20.13957,3.56754 z M 356.16389,377.2435 c -43.31599,-8.09472 -42.00411,-80.05976 0.55046,-88.35238 40.00249,-14.31656 77.12581,43.31868 47.42194,73.74893 -11.46467,13.41957 -30.94589,19.67523 -47.9724,14.60345 z m 28.99382,323.12561 c 41.19232,-8.83728 43.75013,-77.21132 2.52746,-87.89781 -38.16899,-17.4189 -82.22979,33.86362 -57.1927,68.3674 11.5527,17.24607 34.72004,26.43809 54.66524,19.53041 z"
       id="path3016"
       inkscape:connector-curvature="0" />
    <path
       style="fill:#000000"
       d="M 326.00426,806.03313 C 175.66215,790.35001 48.645591,649.80863 53.473346,497.71858 49.469626,377.70474 125.10587,262.12275 233.70325,212.85439 c 66.84745,-31.35863 145.54048,-37.50075 216.24049,-16.30813 -69.17407,-11.95492 -150.02962,-10.11395 -205.15227,39.0033 -62.34323,63.05806 -47.07355,180.69098 27.98138,227.2725 59.88369,40.06633 146.09078,33.46815 192.41185,94.83528 39.08443,51.52639 36.54958,128.81266 0.72437,181.22782 -29.16658,37.83892 -74.90797,64.18668 -122.39893,68.71813 -5.83975,-0.48037 -11.63875,-1.42553 -17.50588,-1.57016 z M 391.58659,698.5796 c 40.96135,-14.77066 32.58619,-84.32539 -10.72334,-89.08058 -40.4652,-11.03431 -76.7909,44.88172 -47.93986,76.37141 13.87585,16.37626 39.28345,22.6808 58.6632,12.70917 z m 135.0773,63.72589 C 630.48647,694.8502 693.94523,564.68942 669.0823,441.38509 652.58977,351.36056 594.37088,270.61341 515.67079,224.38641 c 36.97949,16.59974 68.76444,46.77886 94.38002,78.57122 75.39094,94.59341 88.59171,233.67439 30.22098,339.93713 -26.19964,49.03554 -65.59001,91.2043 -113.6079,119.41073 z m -171.05,-386.18678 c -42.10645,-8.66248 -39.46743,-78.72157 1.76471,-86.61806 39.90647,-13.21806 75.18553,43.2563 45.61531,73.14734 -11.48583,13.01136 -30.75262,18.68747 -47.38002,13.47072 z m 147.95,-158.5113 c -4.78742,-6.17879 11.54363,8.48355 0,0 z m -45.30625,-18.90142 c 5.21042,-3.60456 0.88416,2.90881 0,0 z"
       id="path3014"
       inkscape:connector-curvature="0" />
  </g>
</svg>
